<?xml version="1.0" encoding="UTF-8"?>
<svg width="51px" height="64px" viewBox="0 0 51 64" version="1.1" xmlns="http://www.w3.org/2000/svg" xmlns:xlink="http://www.w3.org/1999/xlink">
    <!-- Generator: Sketch 52.2 (67145) - http://www.bohemiancoding.com/sketch -->
    <title>Artboard Copy</title>
    <desc>Created with Sketch.</desc>
    <g id="Artboard-Copy" stroke="none" stroke-width="1" fill="none" fill-rule="evenodd">
        <path d="M11.7838093,40.4549782 L11.7838093,22.4991505 C11.7838093,21.5620112 12.2869299,20.6960587 13.1036503,20.2274891 L24.1801589,13.872664 C24.9968794,13.4040943 26.0031206,13.4040943 26.8198411,13.872664 L35.2566675,18.7130481 C36.519208,19.4373941 36.9517863,21.0416499 36.2228582,22.2962539 C35.9911777,22.6950138 35.6579499,23.0261469 35.2566675,23.256371 L26.8198411,28.0967552 C26.0031206,28.5653248 25.5,29.4312773 25.5,30.3684166 L25.5,47.5126578 C25.5,48.9613497 26.6818259,50.1357465 28.1396821,50.1357465 C28.6030431,50.1357465 29.0582408,50.0145434 29.4595232,49.7843192 L44.4007947,41.2121987 C45.2175152,40.743629 45.7206357,39.8776765 45.7206357,38.9405372 L45.7206357,18.7674141 C45.7206357,17.8302748 45.2175152,16.9643223 44.4007947,16.4957527 L26.8198411,6.40919111 C26.0031206,5.94062144 24.9968794,5.94062144 24.1801589,6.40919111 L6.59920534,16.4957527 C5.78248484,16.9643223 5.27936427,17.8302748 5.27936427,18.7674141 L5.27936427,38.9405372 C5.27936427,39.8776765 5.78248484,40.743629 6.59920534,41.2121987 L8.53158678,42.3208464 C9.56859613,42.9158004 10.8946149,42.5627282 11.4933325,41.5322377 C11.6836272,41.2047094 11.7838093,40.8331753 11.7838093,40.4549782 Z M22.2477775,63.7113492 L13.1036503,58.4651718 C12.2869299,57.9966021 11.7838093,57.1306497 11.7838093,56.1935103 L11.7838093,51.7589194 C11.7838093,50.8217801 11.2806887,49.9558276 10.4639682,49.487258 L1.31984107,44.2410806 C0.503120573,43.7725109 1.75838153e-15,42.9065585 1.75838153e-15,41.9694191 L0,15.7385322 C5.86127177e-16,14.8013928 0.503120573,13.9354404 1.31984107,13.4668707 L24.1801589,0.351427249 C24.9968794,-0.117142416 26.0031206,-0.117142416 26.8198411,0.351427249 L49.6801589,13.4668707 C50.4968794,13.9354404 51,14.8013928 51,15.7385322 L51,41.9694191 C51,42.9065585 50.4968794,43.7725109 49.6801589,44.2410806 L26.8198411,57.3565241 C26.0031206,57.8250937 25.5,58.6910462 25.5,59.6281855 L25.5,61.845481 C25.5,63.035389 24.5292869,64 23.3318517,64 C22.9512621,64 22.5773777,63.9004477 22.2477775,63.7113492 Z M33.6827706,33.5462502 L35.7896821,34.7559252 C36.8826694,35.3834596 37.2567755,36.7726482 36.6252713,37.8587648 C36.4246802,38.2037592 36.1362883,38.4902463 35.7890472,38.6894658 L25.5,44.5925078 L25.5,36.7232417 L31.0430878,33.5454092 C31.8599597,33.0770994 32.8662012,33.07742 33.6827706,33.5462502 Z" id="Shape" fill="#4A90E2" fill-rule="nonzero"></path>
    </g>
</svg>