<?xml version="1.0" encoding="UTF-8"?>
<svg width="51px" height="63px" viewBox="0 0 51 63" version="1.1" xmlns="http://www.w3.org/2000/svg" xmlns:xlink="http://www.w3.org/1999/xlink">
    <!-- Generator: Sketch 52.2 (67145) - http://www.bohemiancoding.com/sketch -->
    <title>Artboard Copy 2</title>
    <desc>Created with Sketch.</desc>
    <g id="Artboard-Copy-2" stroke="none" stroke-width="1" fill="none" fill-rule="evenodd">
        <path d="M13.1036503,20.3735528 L24.1801589,13.9728391 C24.9968794,13.5008859 26.0031206,13.5008859 26.8198411,13.9728391 L37.8963497,20.3735528 C38.7130701,20.845506 39.2161907,21.7177115 39.2161907,22.661618 L39.2161907,40.7471055 C39.2161907,41.9456059 40.1869038,42.9171824 41.3843391,42.9171824 C41.7649286,42.9171824 42.138813,42.8169113 42.4684132,42.6264472 L44.4007947,41.5097939 C45.2175152,41.0378407 45.7206357,40.1656352 45.7206357,39.2217287 L45.7206357,18.9029345 C45.7206357,17.959028 45.2175152,17.0868225 44.4007947,16.6148693 L26.8198411,6.45547218 C26.0031206,5.98351895 24.9968794,5.98351895 24.1801589,6.45547218 L6.59920534,16.6148693 C5.78248484,17.0868225 5.27936427,17.959028 5.27936427,18.9029345 L5.27936427,39.2217287 C5.27936427,40.1656352 5.78248484,41.0378407 6.59920534,41.5097939 L8.53158678,42.6264472 C9.56859613,43.2256974 10.8946149,42.8700757 11.4933325,41.832144 C11.6836272,41.5022506 11.7838093,41.1280336 11.7838093,40.7471055 L11.7838093,22.661618 C11.7838093,21.7177115 12.2869299,20.845506 13.1036503,20.3735528 Z M39.2161907,52.1326731 L39.2161907,53.9572562 C39.2161907,54.9011627 38.7130701,55.7733682 37.8963497,56.2453215 L26.8198411,62.6460351 C26.0031206,63.1179883 24.9968794,63.1179883 24.1801589,62.6460351 L13.1036503,56.2453215 C12.2869299,55.7733682 11.7838093,54.9011627 11.7838093,53.9572562 L11.7838093,52.1326731 C11.7838093,51.1887666 11.2806887,50.3165611 10.4639682,49.8446078 L1.31984107,44.5605475 C0.503120573,44.0885943 3.46594162e-15,43.2163888 0,42.2724823 L5.56820818e-15,15.8521809 C5.45271571e-15,14.9082744 0.503120573,14.0360689 1.31984107,13.5641156 L24.1801589,0.353964922 C24.9968794,-0.117988307 26.0031206,-0.117988307 26.8198411,0.353964922 L49.6801589,13.5641156 C50.4968794,14.0360689 51,14.9082744 51,15.8521809 L51,42.2724823 C51,43.2163888 50.4968794,44.0885943 49.6801589,44.5605475 L40.5360318,49.8446078 C39.7193113,50.3165611 39.2161907,51.1887666 39.2161907,52.1326731 Z" id="Shape" fill="#F5A623" fill-rule="nonzero"></path>
    </g>
</svg>