<?xml version="1.0" encoding="UTF-8"?>
<svg width="209px" height="63px" viewBox="0 0 209 63" version="1.1" xmlns="http://www.w3.org/2000/svg" xmlns:xlink="http://www.w3.org/1999/xlink">
    <!-- Generator: Sketch 52.2 (67145) - http://www.bohemiancoding.com/sketch -->
    <title>Artboard</title>
    <desc>Created with Sketch.</desc>
    <g id="Artboard" stroke="none" stroke-width="1" fill="none" fill-rule="evenodd">
        <path d="M13.1036503,20.3735528 L24.1801589,13.9728391 C24.9968794,13.5008859 26.0031206,13.5008859 26.8198411,13.9728391 L37.8963497,20.3735528 C38.7130701,20.845506 39.2161907,21.7177115 39.2161907,22.661618 L39.2161907,40.7471055 C39.2161907,41.9456059 40.1869038,42.9171824 41.3843391,42.9171824 C41.7649286,42.9171824 42.138813,42.8169113 42.4684132,42.6264472 L44.4007947,41.5097939 C45.2175152,41.0378407 45.7206357,40.1656352 45.7206357,39.2217287 L45.7206357,18.9029345 C45.7206357,17.959028 45.2175152,17.0868225 44.4007947,16.6148693 L26.8198411,6.45547218 C26.0031206,5.98351895 24.9968794,5.98351895 24.1801589,6.45547218 L6.59920534,16.6148693 C5.78248484,17.0868225 5.27936427,17.959028 5.27936427,18.9029345 L5.27936427,39.2217287 C5.27936427,40.1656352 5.78248484,41.0378407 6.59920534,41.5097939 L8.53158678,42.6264472 C9.56859613,43.2256974 10.8946149,42.8700757 11.4933325,41.832144 C11.6836272,41.5022506 11.7838093,41.1280336 11.7838093,40.7471055 L11.7838093,22.661618 C11.7838093,21.7177115 12.2869299,20.845506 13.1036503,20.3735528 Z M39.2161907,52.1326731 L39.2161907,53.9572562 C39.2161907,54.9011627 38.7130701,55.7733682 37.8963497,56.2453215 L26.8198411,62.6460351 C26.0031206,63.1179883 24.9968794,63.1179883 24.1801589,62.6460351 L13.1036503,56.2453215 C12.2869299,55.7733682 11.7838093,54.9011627 11.7838093,53.9572562 L11.7838093,52.1326731 C11.7838093,51.1887666 11.2806887,50.3165611 10.4639682,49.8446078 L1.31984107,44.5605475 C0.503120573,44.0885943 3.46594162e-15,43.2163888 0,42.2724823 L5.56820818e-15,15.8521809 C5.45271571e-15,14.9082744 0.503120573,14.0360689 1.31984107,13.5641156 L24.1801589,0.353964922 C24.9968794,-0.117988307 26.0031206,-0.117988307 26.8198411,0.353964922 L49.6801589,13.5641156 C50.4968794,14.0360689 51,14.9082744 51,15.8521809 L51,42.2724823 C51,43.2163888 50.4968794,44.0885943 49.6801589,44.5605475 L40.5360318,49.8446078 C39.7193113,50.3165611 39.2161907,51.1887666 39.2161907,52.1326731 Z" id="Shape" fill="#F5A623" fill-rule="nonzero"></path>
        <path d="M63.7579494,39.0888889 C63.5474068,39.0888889 63.3684484,39.016297 63.2210686,38.8711111 C63.0736888,38.7259252 63,38.5496307 63,38.3422222 L63,18.0577778 C63,17.8296285 63.0736888,17.6481488 63.2210686,17.5133333 C63.3684484,17.3785178 63.5474068,17.3111111 63.7579494,17.3111111 L66.7897469,17.3111111 C67.0213437,17.3111111 67.2055657,17.3785178 67.3424183,17.5133333 C67.479271,17.6481488 67.5476963,17.8296285 67.5476963,18.0577778 L67.5476963,38.3422222 C67.5476963,38.5496307 67.479271,38.7259252 67.3424183,38.8711111 C67.2055657,39.016297 67.0213437,39.0888889 66.7897469,39.0888889 L63.7579494,39.0888889 Z M72.853342,39.0888889 C72.6427994,39.0888889 72.463841,39.016297 72.3164612,38.8711111 C72.1690814,38.7259252 72.0953926,38.5496307 72.0953926,38.3422222 L72.0953926,23.6577778 C72.0953926,23.4296285 72.1690814,23.2481488 72.3164612,23.1133333 C72.463841,22.9785178 72.6427994,22.9111111 72.853342,22.9111111 L75.4745836,22.9111111 C75.7061804,22.9111111 75.8904024,22.9785178 76.027255,23.1133333 C76.1641077,23.2481488 76.232533,23.4296285 76.232533,23.6577778 L76.232533,24.9333333 C77.5168425,23.37777 79.2748464,22.6 81.5065974,22.6 C83.4435889,22.6 84.9805264,23.222216 86.1174562,24.4666667 C87.254386,25.7111173 87.8228423,27.4222113 87.8228423,29.6 L87.8228423,38.3422222 C87.8228423,38.5496307 87.754417,38.7259252 87.6175644,38.8711111 C87.4807117,39.016297 87.2964897,39.0888889 87.0648929,39.0888889 L84.2225827,39.0888889 C84.0120402,39.0888889 83.8330817,39.016297 83.6857019,38.8711111 C83.5383221,38.7259252 83.4646334,38.5496307 83.4646334,38.3422222 L83.4646334,29.7866667 C83.4646334,28.5836977 83.1646147,27.6451886 82.5645685,26.9711111 C81.9645222,26.2970337 81.1065742,25.96 79.9906987,25.96 C78.9169317,25.96 78.0537202,26.3022188 77.4010383,26.9866667 C76.7483564,27.6711145 76.4220203,28.6044385 76.4220203,29.7866667 L76.4220203,38.3422222 C76.4220203,38.5496307 76.353595,38.7259252 76.2167424,38.8711111 C76.0798897,39.016297 75.8956678,39.0888889 75.6640709,39.0888889 L72.853342,39.0888889 Z M97.6446031,39.0888889 C97.3287892,39.0888889 97.086669,39.0214822 96.9182349,38.8866667 C96.7498009,38.7518512 96.6129503,38.5600012 96.507679,38.3111111 L90.5704088,23.8755556 C90.5493546,23.813333 90.5388276,23.7200006 90.5388276,23.5955556 C90.5388276,23.408888 90.6072529,23.2481488 90.7441056,23.1133333 C90.8809582,22.9785178 91.0335993,22.9111111 91.2020333,22.9111111 L93.8232749,22.9111111 C94.24436,22.9111111 94.5285882,23.1081462 94.675968,23.5022222 L98.8446896,34.36 L103.013411,23.5022222 C103.05552,23.3570363 103.144999,23.2222228 103.281852,23.0977778 C103.418704,22.9733327 103.602926,22.9111111 103.834523,22.9111111 L106.455765,22.9111111 C106.645253,22.9111111 106.803157,22.9785178 106.929483,23.1133333 C107.055809,23.2481488 107.11897,23.408888 107.11897,23.5955556 C107.11897,23.7200006 107.108443,23.813333 107.087389,23.8755556 L101.1817,38.3111111 C100.950103,38.8296322 100.571132,39.0888889 100.044776,39.0888889 L97.6446031,39.0888889 Z M117.098637,39.4 C114.740561,39.4 112.872024,38.7363029 111.49297,37.4088889 C110.113916,36.0814748 109.382292,34.1940863 109.298075,31.7466667 L109.266494,30.9688889 C109.266494,28.3762833 109.95601,26.3333408 111.335064,24.84 C112.714118,23.3466592 114.624762,22.6 117.067056,22.6 C119.572512,22.6 121.504211,23.3466592 122.862211,24.84 C124.22021,26.3333408 124.8992,28.324432 124.8992,30.8133333 L124.8992,31.4666667 C124.8992,31.6740751 124.825511,31.8503696 124.678131,31.9955556 C124.530751,32.1407415 124.341266,32.2133333 124.109669,32.2133333 L113.624703,32.2133333 L113.624703,32.4622222 C113.666811,33.6237095 113.987884,34.5829592 114.58793,35.34 C115.187976,36.0970408 116.014343,36.4755556 117.067056,36.4755556 C118.267149,36.4755556 119.246157,35.9985233 120.00411,35.0444444 C120.193598,34.8162952 120.340976,34.6762966 120.446247,34.6244444 C120.551518,34.5725923 120.730477,34.5466667 120.983128,34.5466667 L123.762276,34.5466667 C123.951764,34.5466667 124.114932,34.598518 124.251785,34.7022222 C124.388637,34.8059264 124.457063,34.9511102 124.457063,35.1377778 C124.457063,35.635558 124.157044,36.2214781 123.556998,36.8955556 C122.956951,37.569633 122.099003,38.1555531 120.983128,38.6533333 C119.867252,39.1511136 118.572435,39.4 117.098637,39.4 Z M120.540991,29.5688889 L120.540991,29.5066667 C120.540991,28.2829568 120.230445,27.3029666 119.609345,26.5666667 C118.988244,25.8303667 118.140823,25.4622222 117.067056,25.4622222 C115.993289,25.4622222 115.151131,25.8303667 114.540558,26.5666667 C113.929985,27.3029666 113.624703,28.2829568 113.624703,29.5066667 L113.624703,29.5688889 L120.540991,29.5688889 Z M129.004759,39.0888889 C128.794216,39.0888889 128.615258,39.016297 128.467878,38.8711111 C128.320498,38.7259252 128.246809,38.5496307 128.246809,38.3422222 L128.246809,23.6577778 C128.246809,23.4296285 128.320498,23.2481488 128.467878,23.1133333 C128.615258,22.9785178 128.794216,22.9111111 129.004759,22.9111111 L131.626,22.9111111 C131.857597,22.9111111 132.041819,22.9785178 132.178672,23.1133333 C132.315525,23.2481488 132.38395,23.4296285 132.38395,23.6577778 L132.38395,24.9333333 C133.668259,23.37777 135.426263,22.6 137.658014,22.6 C139.595006,22.6 141.131943,23.222216 142.268873,24.4666667 C143.405803,25.7111173 143.974259,27.4222113 143.974259,29.6 L143.974259,38.3422222 C143.974259,38.5496307 143.905834,38.7259252 143.768981,38.8711111 C143.632129,39.016297 143.447907,39.0888889 143.21631,39.0888889 L140.374,39.0888889 C140.163457,39.0888889 139.984499,39.016297 139.837119,38.8711111 C139.689739,38.7259252 139.61605,38.5496307 139.61605,38.3422222 L139.61605,29.7866667 C139.61605,28.5836977 139.316032,27.6451886 138.715985,26.9711111 C138.115939,26.2970337 137.257991,25.96 136.142116,25.96 C135.068349,25.96 134.205137,26.3022188 133.552455,26.9866667 C132.899773,27.6711145 132.573437,28.6044385 132.573437,29.7866667 L132.573437,38.3422222 C132.573437,38.5496307 132.505012,38.7259252 132.368159,38.8711111 C132.231307,39.016297 132.047085,39.0888889 131.815488,39.0888889 L129.004759,39.0888889 Z M155.438244,39.0888889 C153.522306,39.0888889 152.080112,38.5963012 151.111616,37.6111111 C150.14312,36.625921 149.65888,35.1792688 149.65888,33.2711111 L149.65888,26.24 L147.163963,26.24 C146.95342,26.24 146.774462,26.1674081 146.627082,26.0222222 C146.479702,25.8770363 146.406013,25.7007418 146.406013,25.4933333 L146.406013,23.6577778 C146.406013,23.4503693 146.479702,23.2740748 146.627082,23.1288889 C146.774462,22.983703 146.95342,22.9111111 147.163963,22.9111111 L149.65888,22.9111111 L149.65888,17.7466667 C149.65888,17.5185174 149.732568,17.3370377 149.879948,17.2022222 C150.027328,17.0674067 150.206286,17 150.416829,17 L153.038071,17 C153.269667,17 153.453889,17.0674067 153.590742,17.2022222 C153.727595,17.3370377 153.79602,17.5185174 153.79602,17.7466667 L153.79602,22.9111111 L157.743673,22.9111111 C157.954215,22.9111111 158.133174,22.983703 158.280554,23.1288889 C158.427934,23.2740748 158.501622,23.4503693 158.501622,23.6577778 L158.501622,25.4933333 C158.501622,25.7007418 158.427934,25.8770363 158.280554,26.0222222 C158.133174,26.1674081 157.954215,26.24 157.743673,26.24 L153.79602,26.24 L153.79602,32.9288889 C153.79602,33.8207452 153.953924,34.4948125 154.269738,34.9511111 C154.585552,35.4074097 155.101374,35.6355556 155.817218,35.6355556 L158.027904,35.6355556 C158.259501,35.6355556 158.443723,35.7029623 158.580575,35.8377778 C158.717428,35.9725933 158.785853,36.1540729 158.785853,36.3822222 L158.785853,38.3422222 C158.785853,38.5496307 158.717428,38.7259252 158.580575,38.8711111 C158.443723,39.016297 158.259501,39.0888889 158.027904,39.0888889 L155.438244,39.0888889 Z M168.891845,39.4 C166.407443,39.4 164.491535,38.777784 163.144062,37.5333333 C161.79659,36.2888827 161.070229,34.5674184 160.964958,32.3688889 L160.933377,31 L160.964958,29.6311111 C161.070229,27.4533224 161.807117,25.7370433 163.175644,24.4822222 C164.54417,23.2274011 166.449552,22.6 168.891845,22.6 C171.313084,22.6 173.207939,23.2274011 174.576465,24.4822222 C175.944992,25.7370433 176.68188,27.4533224 176.787151,29.6311111 C176.808205,29.8800012 176.818732,30.336293 176.818732,31 C176.818732,31.663707 176.808205,32.1199988 176.787151,32.3688889 C176.68188,34.5674184 175.955519,36.2888827 174.608047,37.5333333 C173.260574,38.777784 171.355193,39.4 168.891845,39.4 Z M168.891845,36.2577778 C170.007721,36.2577778 170.865669,35.915559 171.465715,35.2311111 C172.065761,34.5466632 172.386834,33.5407474 172.428942,32.2133333 C172.449997,32.0059249 172.460523,31.6014845 172.460523,31 C172.460523,30.3985155 172.449997,29.9940751 172.428942,29.7866667 C172.386834,28.4592526 172.060498,27.4481516 171.449924,26.7533333 C170.839351,26.058515 169.986666,25.7111111 168.891845,25.7111111 C167.77597,25.7111111 166.912758,26.058515 166.302185,26.7533333 C165.691611,27.4481516 165.365275,28.4592526 165.323167,29.7866667 L165.291586,31 L165.323167,32.2133333 C165.365275,33.5407474 165.691611,34.5466632 166.302185,35.2311111 C166.912758,35.915559 167.77597,36.2577778 168.891845,36.2577778 Z M181.082198,39.0888889 C180.871655,39.0888889 180.692697,39.016297 180.545317,38.8711111 C180.397937,38.7259252 180.324248,38.5496307 180.324248,38.3422222 L180.324248,23.6888889 C180.324248,23.4607396 180.397937,23.2740748 180.545317,23.1288889 C180.692697,22.983703 180.871655,22.9111111 181.082198,22.9111111 L183.671858,22.9111111 C183.903455,22.9111111 184.09294,22.983703 184.24032,23.1288889 C184.3877,23.2740748 184.461389,23.4607396 184.461389,23.6888889 L184.461389,24.9644444 C185.514101,23.5955487 187.029985,22.9111111 189.009085,22.9111111 L190.335496,22.9111111 C190.567093,22.9111111 190.751315,22.9785178 190.888168,23.1133333 C191.025021,23.2481488 191.093446,23.4296285 191.093446,23.6577778 L191.093446,25.9288889 C191.093446,26.1362973 191.025021,26.3125919 190.888168,26.4577778 C190.751315,26.6029637 190.567093,26.6755556 190.335496,26.6755556 L187.84058,26.6755556 C186.85103,26.6755556 186.072034,26.9555528 185.503569,27.5155556 C184.935104,28.0755584 184.650876,28.8429581 184.650876,29.8177778 L184.650876,38.3422222 C184.650876,38.5496307 184.577187,38.7259252 184.429807,38.8711111 C184.282428,39.016297 184.103469,39.0888889 183.892927,39.0888889 L181.082198,39.0888889 Z M196.525416,45 C196.356982,45 196.204341,44.9377784 196.067489,44.8133333 C195.930636,44.6888883 195.862211,44.5437045 195.862211,44.3777778 C195.862211,44.2325919 195.904319,44.0666676 195.988536,43.88 L198.483452,38.1244444 L192.419857,24.0311111 C192.33564,23.8444435 192.293532,23.6992598 192.293532,23.5955556 C192.314587,23.408888 192.388275,23.2481488 192.514601,23.1133333 C192.640926,22.9785178 192.798831,22.9111111 192.988319,22.9111111 L195.609561,22.9111111 C195.988537,22.9111111 196.262239,23.1081462 196.430673,23.5022222 L200.630976,33.6444444 L204.894441,23.5022222 C205.104983,23.1081462 205.399739,22.9111111 205.778715,22.9111111 L208.336794,22.9111111 C208.526283,22.9111111 208.684187,22.9733327 208.810513,23.0977778 C208.936838,23.2222228 209,23.3674066 209,23.5333333 C209,23.6785192 208.957892,23.8444435 208.873675,24.0311111 L199.936189,44.4088889 C199.767755,44.8029649 199.472999,45 199.051914,45 L196.525416,45 Z" id="Inventory" fill="#5D6E78"></path>
    </g>
</svg>