<?xml version="1.0" encoding="utf-8"?>
<!-- Generator: Adobe Illustrator 22.1.0, SVG Export Plug-In . SVG Version: 6.00 Build 0)  -->
<!DOCTYPE svg PUBLIC "-//W3C//DTD SVG 1.1//EN" "http://www.w3.org/Graphics/SVG/1.1/DTD/svg11.dtd">
<svg version="1.1" id="Logo" xmlns="http://www.w3.org/2000/svg" xmlns:xlink="http://www.w3.org/1999/xlink" x="0px" y="0px"
	 viewBox="0 0 153 27" style="enable-background:new 0 0 153 27;" xml:space="preserve">
<style type="text/css">
	.st0{fill:#4E4B5E;}
	.st1{fill:url(#Path-5_1_);}
	.st2{fill:url(#Path-5-Copy_1_);}
	.st3{enable-background:new    ;}
	.st4{fill:#3A3940;}
	.st5{fill:#75708C;}
</style>
<g id="X">
	<path id="Path-5-Copy-2" class="st0" d="M13,10.7V16L24,6V0L13.5,9.5C13.2,9.8,13,10.3,13,10.7z"/>
	<path id="Path-5-Copy-3" class="st0" d="M0,21v6l10.5-9.5c0.3-0.3,0.5-0.7,0.5-1.2V11L0,21z"/>
	
		<linearGradient id="Path-5_1_" gradientUnits="userSpaceOnUse" x1="-141.8182" y1="436.259" x2="-140.8182" y2="436.259" gradientTransform="matrix(11 0 0 -16 1573 6999)">
		<stop  offset="0" style="stop-color:#8A84A0"/>
		<stop  offset="1" style="stop-color:#736E8C"/>
	</linearGradient>
	<path id="Path-5" class="st1" d="M13,10.7v5.6c0,0.5,0.2,0.9,0.5,1.2L24,27v-6l-10.4-9.5C13,11,13,10.7,13,10.7z"/>
	
		<linearGradient id="Path-5-Copy_1_" gradientUnits="userSpaceOnUse" x1="-140.8182" y1="436.241" x2="-141.8182" y2="436.241" gradientTransform="matrix(11 0 0 -16 1560 6988)">
		<stop  offset="0" style="stop-color:#8A84A0"/>
		<stop  offset="1" style="stop-color:#7C7694"/>
		<stop  offset="1" style="stop-color:#736E8C"/>
	</linearGradient>
	<path id="Path-5-Copy" class="st2" d="M0,0v6l10.6,9.7c0.3,0.3,0.4,0.6,0.4,0.6v-5.6c0-0.5-0.2-0.9-0.5-1.2L0,0z"/>
</g>
<g class="st3">
	<path class="st4" d="M45.1,18.5c-0.9-1-1.4-2.3-1.4-4.1V7.2h1.8v7.1c0,2.7,1.2,4,3.5,4c1.2,0,2-0.3,2.6-1c0.6-0.7,0.9-1.7,0.9-3.1
		V7.2h1.7v7.2c0,1.8-0.5,3.2-1.4,4.1s-2.2,1.4-3.9,1.4S46,19.5,45.1,18.5z"/>
	<path class="st4" d="M61,7.2h1.8v12.6H61V7.2z"/>
</g>
<g class="st3">
	<path class="st5" d="M86.2,8.4c0.9,0.8,1.4,1.9,1.4,3.2s-0.5,2.4-1.4,3.2C85.3,15.6,84,16,82.4,16h-3.1v3.8h-1.8V7.2h4.9
		C84,7.2,85.3,7.6,86.2,8.4z M84.9,13.7c0.6-0.5,0.9-1.2,0.9-2.1s-0.3-1.6-0.9-2.1c-0.6-0.5-1.5-0.7-2.6-0.7h-3.1v5.7h3.1
		C83.5,14.4,84.3,14.2,84.9,13.7z"/>
	<path class="st5" d="M101.7,19.8L99,15.9c-0.3,0-0.6,0-0.8,0h-3.1v3.8h-1.8V7.2h4.9c1.6,0,2.9,0.4,3.9,1.2c0.9,0.8,1.4,1.9,1.4,3.2
		c0,1-0.2,1.8-0.7,2.5c-0.5,0.7-1.2,1.2-2.1,1.5l3,4.2H101.7z M100.7,13.7c0.6-0.5,0.9-1.2,0.9-2.1s-0.3-1.6-0.9-2.1
		c-0.6-0.5-1.5-0.7-2.6-0.7h-3.1v5.7h3.1C99.3,14.4,100.1,14.2,100.7,13.7z"/>
	<path class="st5" d="M111.6,19.1c-1-0.6-1.8-1.3-2.4-2.3s-0.9-2.1-0.9-3.3s0.3-2.3,0.9-3.3c0.6-1,1.4-1.8,2.4-2.3
		c1-0.6,2.2-0.8,3.4-0.8c1.3,0,2.4,0.3,3.4,0.8c1,0.6,1.8,1.3,2.4,2.3c0.6,1,0.9,2.1,0.9,3.3c0,1.2-0.3,2.3-0.9,3.3
		c-0.6,1-1.4,1.7-2.4,2.3c-1,0.6-2.2,0.8-3.4,0.8C113.7,19.9,112.6,19.7,111.6,19.1z M117.5,17.7c0.7-0.4,1.3-1,1.7-1.7
		s0.6-1.6,0.6-2.5s-0.2-1.7-0.6-2.5c-0.4-0.7-1-1.3-1.7-1.7s-1.6-0.6-2.5-0.6s-1.8,0.2-2.5,0.6s-1.3,1-1.8,1.7
		c-0.4,0.7-0.6,1.6-0.6,2.5s0.2,1.7,0.6,2.5c0.4,0.7,1,1.3,1.8,1.7s1.6,0.6,2.5,0.6S116.8,18.1,117.5,17.7z"/>
	<path class="st5" d="M129.8,8.8h-4.3V7.2h10.4v1.6h-4.3v11h-1.8V8.8z"/>
	<path class="st5" d="M142.9,19.1c-1-0.6-1.8-1.3-2.4-2.3s-0.9-2.1-0.9-3.3s0.3-2.3,0.9-3.3c0.6-1,1.4-1.8,2.4-2.3
		c1-0.6,2.2-0.8,3.4-0.8c1.3,0,2.4,0.3,3.4,0.8c1,0.6,1.8,1.3,2.4,2.3c0.6,1,0.9,2.1,0.9,3.3c0,1.2-0.3,2.3-0.9,3.3
		c-0.6,1-1.4,1.7-2.4,2.3c-1,0.6-2.2,0.8-3.4,0.8C145,19.9,143.9,19.7,142.9,19.1z M148.8,17.7c0.7-0.4,1.3-1,1.7-1.7
		s0.6-1.6,0.6-2.5s-0.2-1.7-0.6-2.5c-0.4-0.7-1-1.3-1.7-1.7c-0.7-0.4-1.6-0.6-2.5-0.6c-0.9,0-1.8,0.2-2.5,0.6s-1.3,1-1.8,1.7
		c-0.4,0.7-0.6,1.6-0.6,2.5s0.2,1.7,0.6,2.5s1,1.3,1.8,1.7s1.6,0.6,2.5,0.6C147.2,18.3,148.1,18.1,148.8,17.7z"/>
</g>
</svg>
