<?xml version="1.0" encoding="UTF-8"?>
<svg width="178px" height="64px" viewBox="0 0 178 64" version="1.1" xmlns="http://www.w3.org/2000/svg" xmlns:xlink="http://www.w3.org/1999/xlink">
    <!-- Generator: Sketch 52.2 (67145) - http://www.bohemiancoding.com/sketch -->
    <title>Artboard</title>
    <desc>Created with Sketch.</desc>
    <g id="Artboard" stroke="none" stroke-width="1" fill="none" fill-rule="evenodd">
        <path d="M61.7546359,41.687924 C61.5450137,41.687924 61.3668376,41.615107 61.2201021,41.4694708 C61.0733666,41.3238346 61,41.1469934 61,40.9389417 L61,20.6227951 C61,20.3939382 61.0681262,20.2066945 61.2043805,20.0610583 C61.3406349,19.9154222 61.5240515,19.8426052 61.7546359,19.8426052 L75.4324106,19.8426052 C75.662995,19.8426052 75.851652,19.9154222 75.9983875,20.0610583 C76.145123,20.2066945 76.2184897,20.3939382 76.2184897,20.6227951 L76.2184897,22.8697422 C76.2184897,23.0777939 76.145123,23.2546352 75.9983875,23.4002714 C75.851652,23.5459076 75.662995,23.6187246 75.4324106,23.6187246 L65.3705993,23.6187246 L65.3705993,29.4857531 L74.8035474,29.4857531 C75.0341318,29.4857531 75.2227888,29.5585701 75.3695243,29.7042062 C75.5162598,29.8498424 75.5896264,30.0266837 75.5896264,30.2347354 L75.5896264,32.4816825 C75.5896264,32.6897342 75.5162598,32.8665755 75.3695243,33.0122117 C75.2227888,33.1578479 75.0341318,33.2306649 74.8035474,33.2306649 L65.3705993,33.2306649 L65.3705993,40.9389417 C65.3705993,41.1469934 65.2972327,41.3238346 65.1504972,41.4694708 C65.0037617,41.615107 64.8151046,41.687924 64.5845203,41.687924 L61.7546359,41.687924 Z M80.1803279,22.807327 C79.9707058,22.807327 79.7925296,22.73451 79.6457941,22.5888738 C79.4990587,22.4432376 79.425692,22.2663963 79.425692,22.0583446 L79.425692,19.78019 C79.425692,19.5513331 79.4990587,19.3640894 79.6457941,19.2184532 C79.7925296,19.072817 79.9707058,19 80.1803279,19 L83.0730986,19 C83.303683,19 83.49234,19.072817 83.6390755,19.2184532 C83.785811,19.3640894 83.8591776,19.5513331 83.8591776,19.78019 L83.8591776,22.0583446 C83.8591776,22.2663963 83.7805705,22.4432376 83.6233539,22.5888738 C83.4661373,22.73451 83.2827207,22.807327 83.0730986,22.807327 L80.1803279,22.807327 Z M80.3061005,41.687924 C80.0964784,41.687924 79.9183023,41.615107 79.7715668,41.4694708 C79.6248313,41.3238346 79.5514647,41.1469934 79.5514647,40.9389417 L79.5514647,26.2089552 C79.5514647,25.9800984 79.6248313,25.7980559 79.7715668,25.6628223 C79.9183023,25.5275886 80.0964784,25.4599729 80.3061005,25.4599729 L82.9787691,25.4599729 C83.1883913,25.4599729 83.3665674,25.5327899 83.5133029,25.6784261 C83.6600384,25.8240622 83.733405,26.0009035 83.733405,26.2089552 L83.733405,40.9389417 C83.733405,41.1469934 83.6600384,41.3238346 83.5133029,41.4694708 C83.3665674,41.615107 83.1883913,41.687924 82.9787691,41.687924 L80.3061005,41.687924 Z M88.638538,41.687924 C88.4289159,41.687924 88.2507398,41.615107 88.1040043,41.4694708 C87.9572688,41.3238346 87.8839022,41.1469934 87.8839022,40.9389417 L87.8839022,26.2089552 C87.8839022,25.9800984 87.9572688,25.7980559 88.1040043,25.6628223 C88.2507398,25.5275886 88.4289159,25.4599729 88.638538,25.4599729 L91.2483203,25.4599729 C91.4789047,25.4599729 91.6623213,25.5275886 91.7985757,25.6628223 C91.93483,25.7980559 92.0029562,25.9800984 92.0029562,26.2089552 L92.0029562,27.4884668 C93.2816511,25.928079 95.0319695,25.1478969 97.253964,25.1478969 C99.1824875,25.1478969 100.712706,25.7720426 101.844665,27.0203528 C102.976625,28.268663 103.542596,29.9850637 103.542596,32.1696065 L103.542596,40.9389417 C103.542596,41.1469934 103.47447,41.3238346 103.338216,41.4694708 C103.201961,41.615107 103.018545,41.687924 102.78796,41.687924 L99.9580758,41.687924 C99.7484537,41.687924 99.5702775,41.615107 99.4235421,41.4694708 C99.2768066,41.3238346 99.2034399,41.1469934 99.2034399,40.9389417 L99.2034399,32.3568521 C99.2034399,31.1501523 98.9047329,30.2087325 98.3073099,29.5325645 C97.7098868,28.8563964 96.8556895,28.5183175 95.7446923,28.5183175 C94.6756195,28.5183175 93.8161817,28.8615977 93.1663531,29.5481682 C92.5165246,30.2347388 92.1916152,31.1709574 92.1916152,32.3568521 L92.1916152,40.9389417 C92.1916152,41.1469934 92.123489,41.3238346 91.9872346,41.4694708 C91.8509802,41.615107 91.6675636,41.687924 91.4369793,41.687924 L88.638538,41.687924 Z M112.283795,42 C111.214722,42 110.234753,41.7867502 109.343859,41.3602442 C108.452965,40.9337383 107.750742,40.3564035 107.237167,39.6282225 C106.723593,38.9000416 106.46681,38.0990546 106.46681,37.2252374 C106.46681,35.8104859 107.043262,34.6662188 108.196184,33.7924016 C109.349105,32.9185845 110.931729,32.3256461 112.944101,32.0135685 L117.251814,31.3894166 L117.251814,30.734057 C117.251814,29.8394347 117.021233,29.1632768 116.560064,28.7055631 C116.098896,28.2478494 115.365229,28.0189959 114.359043,28.0189959 C113.66729,28.0189959 113.1118,28.1438251 112.692556,28.3934871 C112.273312,28.6431491 111.932681,28.8980086 111.670653,29.1580733 L111.151841,29.6729986 C111.067992,29.9226607 110.910778,30.0474898 110.680193,30.0474898 L108.227627,30.0474898 C108.038967,30.0474898 107.876512,29.9850753 107.740258,29.8602442 C107.604004,29.7354132 107.535877,29.5689744 107.535877,29.3609227 C107.55684,28.8407934 107.813623,28.2530562 108.306235,27.5976934 C108.798847,26.9423305 109.558716,26.3701969 110.585864,25.8812754 C111.613012,25.392354 112.881207,25.1478969 114.390486,25.1478969 C116.864027,25.1478969 118.666751,25.6992256 119.79871,26.8018996 C120.930669,27.9045736 121.496641,29.3505112 121.496641,31.1397558 L121.496641,40.9389417 C121.496641,41.1469934 121.428515,41.3238346 121.29226,41.4694708 C121.156006,41.615107 120.972589,41.687924 120.742005,41.687924 L118.132223,41.687924 C117.9226,41.687924 117.744424,41.615107 117.597689,41.4694708 C117.450953,41.3238346 117.377587,41.1469934 117.377587,40.9389417 L117.377587,39.7218453 C116.916418,40.3876107 116.266599,40.9337383 115.428111,41.3602442 C114.589622,41.7867502 113.541527,42 112.283795,42 Z M113.352862,39.0040706 C114.505784,39.0040706 115.449069,38.6295831 116.182747,37.880597 C116.916424,37.1316109 117.283257,36.0497583 117.283257,34.6350068 L117.283257,34.0108548 L114.138941,34.5101764 C111.728287,34.8846694 110.522978,35.6856565 110.522978,36.9131615 C110.522978,37.5789269 110.800723,38.0938471 111.356221,38.4579376 C111.91172,38.8220281 112.57726,39.0040706 113.352862,39.0040706 Z M126.276001,41.687924 C126.066379,41.687924 125.888203,41.615107 125.741467,41.4694708 C125.594732,41.3238346 125.521365,41.1469934 125.521365,40.9389417 L125.521365,26.2089552 C125.521365,25.9800984 125.594732,25.7980559 125.741467,25.6628223 C125.888203,25.5275886 126.066379,25.4599729 126.276001,25.4599729 L128.885783,25.4599729 C129.116368,25.4599729 129.299784,25.5275886 129.436039,25.6628223 C129.572293,25.7980559 129.640419,25.9800984 129.640419,26.2089552 L129.640419,27.4884668 C130.919114,25.928079 132.669433,25.1478969 134.891427,25.1478969 C136.819951,25.1478969 138.350169,25.7720426 139.482128,27.0203528 C140.614088,28.268663 141.180059,29.9850637 141.180059,32.1696065 L141.180059,40.9389417 C141.180059,41.1469934 141.111933,41.3238346 140.975679,41.4694708 C140.839424,41.615107 140.656008,41.687924 140.425423,41.687924 L137.595539,41.687924 C137.385917,41.687924 137.207741,41.615107 137.061005,41.4694708 C136.91427,41.3238346 136.840903,41.1469934 136.840903,40.9389417 L136.840903,32.3568521 C136.840903,31.1501523 136.542196,30.2087325 135.944773,29.5325645 C135.34735,28.8563964 134.493153,28.5183175 133.382155,28.5183175 C132.313083,28.5183175 131.453645,28.8615977 130.803816,29.5481682 C130.153988,30.2347388 129.829078,31.1709574 129.829078,32.3568521 L129.829078,40.9389417 C129.829078,41.1469934 129.760952,41.3238346 129.624698,41.4694708 C129.488443,41.615107 129.305027,41.687924 129.074442,41.687924 L126.276001,41.687924 Z M152.248052,42 C149.942208,42 148.102802,41.3654518 146.729777,40.0963365 C145.356752,38.8272212 144.628326,37.0692107 144.544477,34.8222524 L144.513034,33.5739484 L144.544477,32.3256445 C144.628326,30.0786862 145.356752,28.3206757 146.729777,27.0515604 C148.102802,25.782445 149.942208,25.1478969 152.248052,25.1478969 C153.904066,25.1478969 155.303273,25.4391649 156.445714,26.0217096 C157.588154,26.6042544 158.437111,27.3168208 158.99261,28.1594301 C159.548108,29.0020395 159.846815,29.8082277 159.88874,30.578019 C159.909702,30.7860707 159.841576,30.962912 159.684359,31.1085482 C159.527142,31.2541844 159.343726,31.3270014 159.134104,31.3270014 L156.335662,31.3270014 C156.105078,31.3270014 155.937383,31.2801904 155.832572,31.1865672 C155.727761,31.0929439 155.622951,30.9213038 155.51814,30.6716418 C155.203707,29.8810453 154.78971,29.3089118 154.276135,28.9552239 C153.762561,28.601536 153.107502,28.4246947 152.310938,28.4246947 C151.241865,28.4246947 150.40863,28.7575724 149.811207,29.4233379 C149.213784,30.0891033 148.894115,31.1085413 148.85219,32.4816825 L148.820747,33.6363636 L148.85219,34.6662144 C148.977964,37.3708864 150.130868,38.7232022 152.310938,38.7232022 C153.128464,38.7232022 153.788764,38.5515621 154.291857,38.2082768 C154.79495,37.8649915 155.203707,37.2876567 155.51814,36.4762551 C155.601989,36.2473982 155.701558,36.0809594 155.81685,35.9769335 C155.932142,35.8729077 156.105078,35.8208955 156.335662,35.8208955 L159.134104,35.8208955 C159.343726,35.8208955 159.527142,35.8937125 159.684359,36.0393487 C159.841576,36.1849849 159.909702,36.3618262 159.88874,36.5698779 C159.846815,37.2980588 159.553349,38.0834422 159.008331,38.9260516 C158.463314,39.7686609 157.624838,40.4916297 156.492878,41.0949796 C155.360919,41.6983296 153.945991,42 152.248052,42 Z M170.233539,42 C167.885772,42 166.025403,41.3342446 164.652378,40.0027137 C163.279354,38.6711828 162.550928,36.7779408 162.467079,34.3229308 L162.435636,33.5427408 C162.435636,30.9420946 163.122138,28.8928162 164.495163,27.394844 C165.868187,25.8968718 167.77048,25.1478969 170.202096,25.1478969 C172.696599,25.1478969 174.619853,25.8968718 175.971916,27.394844 C177.323979,28.8928162 178,30.8900825 178,33.3867028 L178,34.0420624 C178,34.2501141 177.926633,34.4269554 177.779898,34.5725916 C177.633162,34.7182278 177.444505,34.7910448 177.213921,34.7910448 L166.774792,34.7910448 L166.774792,35.0407056 C166.816716,36.2057951 167.136385,37.1680197 167.733808,37.9274084 C168.331231,38.6867971 169.153986,39.0664858 170.202096,39.0664858 C171.396942,39.0664858 172.371671,38.587974 173.12631,37.6309362 C173.31497,37.4020794 173.461703,37.2616466 173.566514,37.2096336 C173.671325,37.1576207 173.849502,37.1316147 174.101048,37.1316147 L176.868046,37.1316147 C177.056706,37.1316147 177.219161,37.1836268 177.355415,37.2876526 C177.49167,37.3916785 177.559796,37.5373125 177.559796,37.724559 C177.559796,38.2238831 177.261089,38.8116203 176.663666,39.4877883 C176.066243,40.1639563 175.212045,40.7516936 174.101048,41.2510176 C172.990051,41.7503417 171.700894,42 170.233539,42 Z M173.660844,32.1383989 L173.660844,32.0759837 C173.660844,30.8484787 173.351656,29.8654492 172.733271,29.1268657 C172.114885,28.3882822 171.271169,28.0189959 170.202096,28.0189959 C169.133023,28.0189959 168.294548,28.3882822 167.686643,29.1268657 C167.078739,29.8654492 166.774792,30.8484787 166.774792,32.0759837 L166.774792,32.1383989 L173.660844,32.1383989 Z" id="Finance-Copy" fill="#5D6E78"></path>
        <path d="M11.7838093,40.4549782 L11.7838093,22.4991505 C11.7838093,21.5620112 12.2869299,20.6960587 13.1036503,20.2274891 L24.1801589,13.872664 C24.9968794,13.4040943 26.0031206,13.4040943 26.8198411,13.872664 L35.2566675,18.7130481 C36.519208,19.4373941 36.9517863,21.0416499 36.2228582,22.2962539 C35.9911777,22.6950138 35.6579499,23.0261469 35.2566675,23.256371 L26.8198411,28.0967552 C26.0031206,28.5653248 25.5,29.4312773 25.5,30.3684166 L25.5,47.5126578 C25.5,48.9613497 26.6818259,50.1357465 28.1396821,50.1357465 C28.6030431,50.1357465 29.0582408,50.0145434 29.4595232,49.7843192 L44.4007947,41.2121987 C45.2175152,40.743629 45.7206357,39.8776765 45.7206357,38.9405372 L45.7206357,18.7674141 C45.7206357,17.8302748 45.2175152,16.9643223 44.4007947,16.4957527 L26.8198411,6.40919111 C26.0031206,5.94062144 24.9968794,5.94062144 24.1801589,6.40919111 L6.59920534,16.4957527 C5.78248484,16.9643223 5.27936427,17.8302748 5.27936427,18.7674141 L5.27936427,38.9405372 C5.27936427,39.8776765 5.78248484,40.743629 6.59920534,41.2121987 L8.53158678,42.3208464 C9.56859613,42.9158004 10.8946149,42.5627282 11.4933325,41.5322377 C11.6836272,41.2047094 11.7838093,40.8331753 11.7838093,40.4549782 Z M22.2477775,63.7113492 L13.1036503,58.4651718 C12.2869299,57.9966021 11.7838093,57.1306497 11.7838093,56.1935103 L11.7838093,51.7589194 C11.7838093,50.8217801 11.2806887,49.9558276 10.4639682,49.487258 L1.31984107,44.2410806 C0.503120573,43.7725109 1.75838153e-15,42.9065585 1.75838153e-15,41.9694191 L0,15.7385322 C5.86127177e-16,14.8013928 0.503120573,13.9354404 1.31984107,13.4668707 L24.1801589,0.351427249 C24.9968794,-0.117142416 26.0031206,-0.117142416 26.8198411,0.351427249 L49.6801589,13.4668707 C50.4968794,13.9354404 51,14.8013928 51,15.7385322 L51,41.9694191 C51,42.9065585 50.4968794,43.7725109 49.6801589,44.2410806 L26.8198411,57.3565241 C26.0031206,57.8250937 25.5,58.6910462 25.5,59.6281855 L25.5,61.845481 C25.5,63.035389 24.5292869,64 23.3318517,64 C22.9512621,64 22.5773777,63.9004477 22.2477775,63.7113492 Z M33.6827706,33.5462502 L35.7896821,34.7559252 C36.8826694,35.3834596 37.2567755,36.7726482 36.6252713,37.8587648 C36.4246802,38.2037592 36.1362883,38.4902463 35.7890472,38.6894658 L25.5,44.5925078 L25.5,36.7232417 L31.0430878,33.5454092 C31.8599597,33.0770994 32.8662012,33.07742 33.6827706,33.5462502 Z" id="Shape" fill="#4A90E2" fill-rule="nonzero"></path>
    </g>
</svg>