<?xml version="1.0" encoding="utf-8"?>
<!-- Generator: Adobe Illustrator 22.1.0, SVG Export Plug-In . SVG Version: 6.00 Build 0)  -->
<!DOCTYPE svg PUBLIC "-//W3C//DTD SVG 1.1//EN" "http://www.w3.org/Graphics/SVG/1.1/DTD/svg11.dtd">
<svg version="1.1" id="Logo" xmlns="http://www.w3.org/2000/svg" xmlns:xlink="http://www.w3.org/1999/xlink" x="0px" y="0px"
	 viewBox="0 0 24 27" style="enable-background:new 0 0 24 27;" xml:space="preserve">
<style type="text/css">
	.st0{fill:#4E4B5E;}
	.st1{fill:url(#Path-5_1_);}
	.st2{fill:url(#Path-5-Copy_1_);}
</style>
<g id="X">
	<path id="Path-5-Copy-2" class="st0" d="M13,10.7V16L24,6V0L13.5,9.5C13.2,9.8,13,10.3,13,10.7z"/>
	<path id="Path-5-Copy-3" class="st0" d="M0,21v6l10.5-9.5c0.3-0.3,0.5-0.7,0.5-1.2V11L0,21z"/>
	
		<linearGradient id="Path-5_1_" gradientUnits="userSpaceOnUse" x1="-141.8182" y1="436.259" x2="-140.8182" y2="436.259" gradientTransform="matrix(11 0 0 -16 1573 6999)">
		<stop  offset="0" style="stop-color:#8A84A0"/>
		<stop  offset="1" style="stop-color:#736E8C"/>
	</linearGradient>
	<path id="Path-5" class="st1" d="M13,10.7v5.6c0,0.5,0.2,0.9,0.5,1.2L24,27v-6l-10.4-9.5C13,11,13,10.7,13,10.7z"/>
	
		<linearGradient id="Path-5-Copy_1_" gradientUnits="userSpaceOnUse" x1="-140.8182" y1="436.241" x2="-141.8182" y2="436.241" gradientTransform="matrix(11 0 0 -16 1560 6988)">
		<stop  offset="0" style="stop-color:#8A84A0"/>
		<stop  offset="1" style="stop-color:#7C7694"/>
		<stop  offset="1" style="stop-color:#736E8C"/>
	</linearGradient>
	<path id="Path-5-Copy" class="st2" d="M0,0v6l10.6,9.7c0.3,0.3,0.4,0.6,0.4,0.6v-5.6c0-0.5-0.2-0.9-0.5-1.2L0,0z"/>
</g>
</svg>
