<?xml version="1.0" encoding="UTF-8"?>
<svg width="17px" height="20px" viewBox="0 0 17 20" version="1.1" xmlns="http://www.w3.org/2000/svg" xmlns:xlink="http://www.w3.org/1999/xlink">
    <!-- Generator: Sketch 52 (66869) - http://www.bohemiancoding.com/sketch -->
    <title>Artboard</title>
    <desc>Created with Sketch.</desc>
    <g id="Artboard" stroke="none" stroke-width="1" fill="none" fill-rule="evenodd">
        <path d="M4.71225972,16.8319818 L1.38685686,19.7878954 C0.849482936,20.2655611 7.03083961e-15,19.8840872 6.84581751e-15,19.1651051 L0,2.49979631 C-7.4008838e-16,1.11919693 1.11919693,1.85022095e-16 2.49979631,0 L14.1655124,1.85022095e-16 C15.5461118,0 16.6653088,1.11919693 16.6653088,2.49979631 L16.6653088,19.1651051 C16.6653088,19.78826 16.0063046,20.1909152 15.4518104,19.9065592 L12.4445622,18.3643806 L8.92967514,19.9265527 C8.63088598,20.0593478 8.28204316,20.0051226 8.03766257,19.7878954 L4.71225972,16.8319818 Z M14.9987779,2.49979631 C14.9987779,2.03959652 14.6257122,1.66653088 14.1655124,1.66653088 L2.49979631,1.66653088 C2.03959652,1.66653088 1.66653088,2.03959652 1.66653088,2.49979631 L1.66653088,17.3095531 L4.15866829,15.0943198 C4.47438092,14.8136864 4.95013852,14.8136864 5.26585114,15.0943198 L8.74351498,18.1855765 L12.1318271,16.67966 C12.3620802,16.5773253 12.6262739,16.5846754 12.8504812,16.6996535 L14.9987779,17.8013441 L14.9987779,2.49979631 Z M4.16632719,7.49938894 C3.7061274,7.49938894 3.33306175,7.1263233 3.33306175,6.6661235 C3.33306175,6.20592371 3.7061274,5.83285807 4.16632719,5.83285807 L12.4989816,5.83285807 C12.9591814,5.83285807 13.332247,6.20592371 13.332247,6.6661235 C13.332247,7.1263233 12.9591814,7.49938894 12.4989816,7.49938894 L4.16632719,7.49938894 Z M4.16632719,10.8324507 C3.7061274,10.8324507 3.33306175,10.459385 3.33306175,9.99918525 C3.33306175,9.53898546 3.7061274,9.16591982 4.16632719,9.16591982 L9.16591982,9.16591982 C9.62611961,9.16591982 9.99918525,9.53898546 9.99918525,9.99918525 C9.99918525,10.459385 9.62611961,10.8324507 9.16591982,10.8324507 L4.16632719,10.8324507 Z" id="Combined-Shape" fill="#FFFFFF" fill-rule="nonzero"></path>
    </g>
</svg>